M48
; DRILL file {KiCad 7.0.5} date Sun Mar 24 15:02:10 2024
; FORMAT={-:-/ absolute / metric / decimal}
; #@! TF.CreationDate,2024-03-24T15:02:10+04:00
; #@! TF.GenerationSoftware,Kicad,Pcbnew,7.0.5
; #@! TF.FileFunction,Plated,1,2,PTH
FMAT,2
METRIC
; #@! TA.AperFunction,Plated,PTH,ComponentDrill
T1C0.750
; #@! TA.AperFunction,Plated,PTH,ComponentDrill
T2C0.800
; #@! TA.AperFunction,Plated,PTH,ComponentDrill
T3C0.900
; #@! TA.AperFunction,Plated,PTH,ComponentDrill
T4C1.000
; #@! TA.AperFunction,Plated,PTH,ComponentDrill
T5C1.100
; #@! TA.AperFunction,Plated,PTH,ComponentDrill
T6C1.200
; #@! TA.AperFunction,Plated,PTH,ComponentDrill
T7C1.520
%
G90
G05
T1
X105.41Y63.5
X106.68Y63.5
X107.95Y63.5
X107.95Y101.6
X109.22Y101.6
X110.49Y101.6
T2
X95.25Y107.95
X95.25Y123.19
X95.25Y133.35
X99.06Y139.7
X101.6Y69.85
X101.6Y85.09
X101.6Y105.41
X101.6Y120.65
X101.6Y146.05
X105.41Y88.9
X105.41Y107.95
X107.95Y69.85
X107.95Y85.09
X107.95Y95.25
X107.95Y114.3
X107.95Y129.54
X110.49Y133.35
X113.03Y125.73
X113.03Y128.27
X113.03Y130.81
X113.03Y133.35
X114.3Y73.66
X114.3Y76.2
X114.3Y78.74
X114.3Y81.28
X114.3Y101.6
X114.3Y139.7
X115.57Y95.25
X116.84Y146.05
X120.65Y88.9
X120.65Y107.95
X120.65Y125.73
X120.65Y128.27
X120.65Y130.81
X120.65Y133.35
X121.92Y73.66
X121.92Y76.2
X121.92Y78.74
X121.92Y81.28
X121.92Y101.6
X124.46Y63.5
X124.46Y88.9
X127.0Y69.85
X127.0Y85.09
X130.81Y76.2
X137.16Y57.15
X139.7Y63.5
X139.7Y88.9
X146.05Y76.2
X152.4Y57.15
T3
X127.0Y146.05
X129.54Y146.05
T4
X87.75Y82.55
X87.75Y101.6
X87.75Y139.7
X88.9Y120.65
X88.9Y123.19
X88.9Y125.73
X95.25Y62.35
X95.25Y69.85
X95.25Y82.55
X95.25Y101.6
X95.25Y139.7
X113.15Y63.5
X120.65Y63.5
X125.85Y120.65
X127.0Y125.85
X127.0Y133.35
X133.35Y120.65
X144.9Y82.55
X146.05Y63.5
X146.05Y66.04
X146.05Y68.58
X152.4Y82.55
T5
X118.11Y114.3
X120.65Y114.3
X123.19Y114.3
T6
X127.0Y101.6
X139.7Y114.3
X139.7Y139.7
X152.4Y101.6
T7
X109.22Y158.75
X114.3Y158.75
X115.57Y50.8
X120.65Y50.8
X152.4Y121.92
X152.4Y127.0
T0
M30
